# xmcd
#
# Track frame offsets: 
#        182
#        13957
#        23810
#        36837
#        51912
#        65745
#        76360
#        86252
#        100285
#        112732
#        125707
#        137187
#
# Disc length: 2029 seconds
#
# Revision: 2
# Processed by: cddbd v1.4PL0 Copyright (c) Steve Scherf et al.
# Submitted via: ExactAudioCopy v0.90b4
#
DISCID=a007eb0c
DTITLE=Tom T. Hall - Ballad of Forty Dollars
DYEAR=1900
DGENRE=Country
TTITLE0=Ballad Of Forty Dollars
TTITLE1=Highways
TTITLE2=Myra
TTITLE3=Homecoming
TTITLE4=A Week In A County Jail
TTITLE5=Flat-Footin' It
TTITLE6=Kentucky In The Morning
TTITLE7=Shoeshine Man
TTITLE8=The Year That Clayton Delaney Died
TTITLE9=Strawberry Farms
TTITLE10=One Hundred Children
TTITLE11=Me And Jesus
EXTD=
EXTT0=
EXTT1=
EXTT2=
EXTT3=
EXTT4=
EXTT5=
EXTT6=
EXTT7=
EXTT8=
EXTT9=
EXTT10=
EXTT11=
PLAYORDER=
